<svg id="Layer_1" data-name="Layer 1" xmlns="http://www.w3.org/2000/svg" viewBox="0 0 121.74 121.74">
    <defs>
        <style>.cls-1{fill:rgba(255,255,255,0)}.cls-2{fill:#ffffff;}</style>
    </defs>
    <path class="cls-1" d="M60.87,119.74a58.87,58.87,0,1,1,58.87-58.87A58.94,58.94,0,0,1,60.87,119.74Z"/>
    <path class="cls-2"
          d="M60.87,0a60.87,60.87,0,1,0,60.87,60.87A60.94,60.94,0,0,0,60.87,0Zm40,25.53L106.1,81,20.58,89,15.4,33.53Zm-40-20.11A55.24,55.24,0,0,1,99.38,21L15.63,28.87A55.4,55.4,0,0,1,60.87,5.42Zm0,110.89A55.43,55.43,0,0,1,11,36.58l5,53.27a4.17,4.17,0,0,0,4.14,3.78l.39,0L107,85.52A4.17,4.17,0,0,0,110.75,81l-4.91-52.49a55.4,55.4,0,0,1-45,87.82Z"/>
    <path class="cls-2"
          d="M39.92,60.32c3.74,2.82,7.51,5.57,11.22,8.48,4.21,3.26,7.66,7.33,11.39,11.1l1,.91A146.75,146.75,0,0,1,73,54.57c2.85-5.81,4.07-8.74,9-15.43l-5.47-7.61C68,42.36,63.83,46.53,58.27,60.78L43,49.18c-.19.35-.34.57-.45.81l-3.38,7.3C38.31,59.12,38.32,59.11,39.92,60.32Z"/>
    <path class="cls-2"
          d="M43.2,97.29a2.39,2.39,0,0,0-2.61-2.15l-5.9.57a2.39,2.39,0,0,0,.23,4.77h.23l5.9-.57A2.39,2.39,0,0,0,43.2,97.29Z"/>
    <path class="cls-2" d="M48.25,99.2h.23l5.9-.57a2.39,2.39,0,0,0-.46-4.76l-5.9.57a2.39,2.39,0,0,0,.23,4.77Z"/>
    <path class="cls-2" d="M61.59,97.91h.23l5.9-.57a2.39,2.39,0,1,0-.46-4.76l-5.9.57a2.39,2.39,0,0,0,.23,4.77Z"/>
    <path class="cls-2" d="M74.92,96.62h.23L81,96a2.39,2.39,0,1,0-.46-4.76l-5.9.57a2.39,2.39,0,0,0,.23,4.77Z"/>
    <path class="cls-2" d="M93.92,90l-5.9.57a2.39,2.39,0,0,0,.23,4.77h.23l5.9-.57A2.39,2.39,0,0,0,93.92,90Z"/>
    <path class="cls-2" d="M78.29,106.9,54.23,109a2.39,2.39,0,0,0,.21,4.77h.21l24.06-2.14a2.39,2.39,0,1,0-.42-4.76Z"/>
    <path class="cls-2" d="M88.35,98.3l-5.9.54a2.39,2.39,0,0,0,.21,4.77h.22l5.9-.54a2.39,2.39,0,1,0-.44-4.76Z"/>
    <path class="cls-2" d="M47.38,101.77l-5.9.54a2.39,2.39,0,0,0,.21,4.77h.22l5.9-.54a2.39,2.39,0,1,0-.44-4.76Z"/>
    <path class="cls-2" d="M55,101.16a2.39,2.39,0,0,0,.21,4.77h.22l5.9-.54a2.39,2.39,0,1,0-.44-4.76Z"/>
    <path class="cls-2" d="M68.56,100a2.39,2.39,0,0,0,.21,4.77H69l5.9-.54a2.39,2.39,0,1,0-.44-4.76Z"/>
</svg>